<svg version="1.1" id="Layer_1" xmlns="http://www.w3.org/2000/svg" xmlns:xlink="http://www.w3.org/1999/xlink" x="0px" y="0px"
	 width="100%" viewBox="0 0 304 352" enableBackground="new 0 0 304 352" xmlSpace="preserve">
<path fill="#000000" opacity="1.000000" stroke="none" 
	d="
M85.784660,274.847107 
	C76.138535,279.514038 67.062424,284.422546 58.445942,290.163177 
	C56.683933,291.337097 54.840557,292.827332 52.475155,291.710663 
	C49.169525,290.150085 49.650803,285.955933 53.514263,283.434692 
	C65.263924,275.767059 77.607811,269.210144 90.576729,263.842407 
	C92.355217,263.106293 94.348694,262.716492 95.840118,260.415344 
	C88.755104,260.412994 82.323784,261.794250 75.934296,263.365387 
	C73.031418,264.079163 70.060211,264.932220 69.055214,260.999756 
	C68.078621,257.178436 70.935036,256.171753 73.869057,255.449341 
	C75.321152,255.091797 76.755516,254.662582 78.199265,254.270798 
	C85.145088,252.385895 85.145248,252.386490 82.959839,244.772629 
	C77.438789,246.041000 75.481102,243.070602 75.358376,238.027405 
	C75.334343,237.040024 74.727997,235.995483 74.915062,235.085190 
	C77.068977,224.603928 72.064713,215.807343 68.353722,206.706360 
	C67.277771,204.067642 66.503159,201.315369 69.816505,199.885468 
	C73.097229,198.469650 74.757370,200.811371 75.824783,203.463867 
	C77.129440,206.705887 78.180817,210.049927 79.489151,213.290329 
	C80.375137,215.484680 81.549454,217.734833 84.328285,217.710739 
	C86.992981,217.687622 87.789055,215.335419 88.505455,213.322479 
	C89.835861,209.584259 90.858597,205.735489 92.664459,201.867188 
	C90.778343,203.840637 88.638382,204.581711 86.151497,204.015030 
	C83.468063,203.403534 81.923904,201.485184 80.816689,199.147629 
	C80.160858,197.763046 79.556877,196.432877 77.760269,196.214798 
	C75.528763,195.943893 74.009544,194.771225 73.809853,192.424698 
	C73.599762,189.956039 75.098175,188.371078 77.001396,187.166794 
	C78.485428,186.227737 80.077507,185.459442 81.671242,184.588104 
	C80.607933,183.063171 79.469086,183.273376 78.394020,183.823196 
	C77.361259,184.351395 76.484299,185.203430 75.430809,185.668259 
	C72.567848,186.931488 69.366241,190.190277 66.701118,186.060471 
	C63.956604,181.807678 67.619415,179.576111 70.728012,177.997833 
	C77.245224,174.688919 81.954880,169.150314 87.685265,164.890656 
	C89.338326,163.661835 89.578232,161.961945 89.779625,160.065567 
	C90.925064,149.279343 93.061729,138.719055 96.820648,128.492249 
	C99.986824,119.878159 101.023521,110.774490 102.879868,100.646896 
	C94.282928,109.399780 88.998199,118.943672 84.492638,128.929489 
	C81.481766,135.602585 78.854187,142.452530 76.997673,149.574814 
	C76.281731,152.321472 75.302155,155.728104 71.603462,154.774368 
	C67.660545,153.757660 68.367722,150.257187 69.246559,147.285812 
	C78.215393,116.961403 93.130089,90.909019 121.604019,74.628159 
	C121.987236,74.409042 122.216240,73.920227 122.921440,73.069893 
	C116.837532,71.259483 111.445404,72.001617 106.383545,74.885521 
	C96.421570,80.561172 89.112473,88.962738 83.249237,98.605705 
	C72.018639,117.076096 66.306198,137.632629 61.385403,158.416977 
	C53.701656,190.871475 51.541817,223.862366 52.262329,257.110657 
	C52.328930,260.183960 53.058281,264.273376 48.377808,264.276794 
	C43.977921,264.279999 44.094669,260.236420 44.022247,257.137817 
	C42.896141,208.956894 48.492519,161.790207 65.568924,116.395950 
	C71.631203,100.280571 79.957756,85.605858 93.192764,74.182999 
	C102.325516,66.300713 112.515709,61.789078 124.889130,64.744453 
	C126.341454,65.091331 128.103775,65.244148 129.113098,66.159073 
	C134.783600,71.299240 140.270447,67.872887 145.641510,65.871719 
	C150.312424,64.131409 154.748199,61.765026 159.308380,59.721004 
	C163.941544,57.644260 165.961548,58.433544 166.675629,63.262348 
	C167.009155,65.517693 168.175095,66.098145 169.771820,66.453926 
	C198.868530,72.937080 214.114990,92.521225 221.316864,120.159248 
	C231.344345,158.640686 241.199600,197.175690 253.148712,235.127869 
	C254.597961,239.730911 256.155457,244.313126 257.309814,248.992065 
	C258.524231,253.914398 257.091187,255.624252 252.184601,255.427994 
	C235.691818,254.768265 219.196365,254.903519 202.699142,255.094055 
	C196.084412,255.170441 195.992340,255.394867 196.109665,261.810669 
	C196.274994,270.852264 197.997635,279.645874 199.866180,288.433136 
	C200.142807,289.733978 200.442444,291.049774 200.512390,292.370270 
	C200.634262,294.670776 199.496353,296.274170 197.236359,296.723663 
	C195.063782,297.155731 193.635101,295.794403 193.101196,293.920258 
	C192.100204,290.406616 191.047195,286.842468 190.673141,283.231262 
	C190.142395,278.106934 187.669693,276.272247 182.750504,277.220642 
	C180.468338,277.660645 178.155121,277.939789 175.090805,278.408997 
	C178.135666,279.907043 180.651138,280.508881 183.304214,280.800934 
	C185.755966,281.070862 188.080948,281.877777 188.088608,284.868683 
	C188.096054,287.771088 185.994675,288.758118 183.439194,289.088135 
	C179.477936,289.599701 175.515137,290.107452 171.567184,290.709839 
	C169.981934,290.951691 168.102417,291.017792 167.482422,289.629150 
	C165.286469,284.710693 160.737381,284.822388 156.590790,284.151276 
	C151.822220,283.379486 148.510803,281.654541 150.479813,275.251007 
	C144.912430,276.124847 141.252975,274.417206 140.090302,268.981354 
	C139.767517,267.472229 138.289444,267.198975 136.882065,267.115173 
	C134.141403,266.952087 132.429932,265.494537 132.399948,262.744690 
	C132.366821,259.707703 134.735977,259.118225 137.164383,258.675903 
	C140.436493,258.079865 143.669662,257.259705 146.950287,256.723938 
	C149.821625,256.255005 152.455078,255.990463 153.084396,252.198853 
	C153.506729,249.654266 156.278671,249.486252 158.301788,248.984512 
	C168.472504,246.462173 178.662277,244.012665 188.872910,241.657028 
	C193.535614,240.581329 197.221298,238.304321 199.302475,233.912872 
	C205.361938,221.126953 211.855652,208.473007 214.127884,194.296829 
	C215.395264,186.389893 215.499786,178.481613 212.009521,170.435486 
	C206.104630,173.350464 200.170578,174.659042 193.673096,173.774780 
	C192.982040,177.212982 193.048065,180.509735 191.021408,183.082932 
	C189.396103,185.146561 187.373611,186.971832 184.667374,185.397324 
	C182.216507,183.971420 182.320648,181.557312 183.703415,179.276367 
	C185.392700,176.489838 184.601898,173.854004 183.427536,171.175156 
	C181.087799,165.837967 178.696365,160.520294 176.505096,155.121979 
	C173.769989,148.383835 173.847855,148.352234 165.869064,150.149094 
	C166.243927,158.106384 164.775131,165.638779 158.479782,171.299988 
	C153.398941,175.868988 147.430222,178.802063 140.534134,179.198212 
	C126.500961,180.004364 121.298805,174.834579 116.873611,155.630936 
	C109.196152,157.722519 103.572762,162.815506 98.054153,167.988327 
	C97.376366,168.623642 97.339867,170.194031 97.388397,171.314545 
	C97.878448,182.630142 98.536522,193.941483 102.349251,204.752274 
	C105.004593,212.281372 109.275711,218.760452 115.481560,223.888702 
	C116.764091,224.948532 118.099182,225.983932 119.194954,227.221100 
	C120.728195,228.952255 120.702255,230.874405 119.117065,232.608459 
	C117.658333,234.204178 115.925957,234.270493 114.157661,233.136292 
	C110.381180,230.714050 107.066887,227.731689 103.359085,223.489212 
	C105.967064,234.166946 106.848618,243.829758 106.437637,253.688309 
	C106.089325,262.043518 103.257668,268.149841 94.826653,270.897644 
	C91.832382,271.873596 89.018898,273.404266 85.784660,274.847107 
M114.158203,117.081985 
	C114.602829,115.344200 115.047455,113.606415 115.585541,111.503311 
	C106.207825,123.336479 98.045616,145.971710 99.828537,155.515167 
	C106.913536,149.070419 116.371140,147.109299 123.490341,140.677444 
	C135.412918,129.905945 151.159073,129.650543 164.383896,138.877289 
	C165.895065,139.931625 167.281570,141.154663 169.319534,140.855621 
	C175.187073,139.994705 181.125076,139.747864 186.295441,136.023468 
	C194.022522,130.457397 202.332489,128.959457 211.105453,133.838135 
	C211.621490,134.125092 212.321777,134.080719 212.931030,134.189606 
	C214.192780,127.965889 212.957916,125.004150 207.949280,122.527748 
	C199.915787,118.555763 191.276215,116.634140 182.423752,116.254898 
	C163.250427,115.433502 144.618698,118.362923 126.601662,125.155510 
	C122.542274,126.685944 119.491890,128.588745 119.346512,133.403641 
	C119.271889,135.875168 118.004677,137.689148 115.368858,137.568436 
	C112.385376,137.431808 111.658691,135.199844 111.691696,132.609985 
	C111.755722,127.584137 113.066399,122.749832 114.158203,117.081985 
M137.772522,151.302032 
	C139.570038,149.193710 141.900742,147.494019 142.928833,144.789230 
	C137.492523,140.967758 134.608978,141.389908 128.737762,146.775787 
	C125.369354,149.865723 124.603706,156.717743 127.245850,161.243362 
	C131.372162,158.908081 133.779587,154.750732 137.772522,151.302032 
M188.605377,156.367996 
	C192.225815,151.656067 195.846252,146.944122 199.956299,141.594940 
	C194.370377,140.791351 190.510376,141.913376 188.524597,145.354752 
	C186.574966,148.733459 187.517899,152.968018 187.669861,156.855606 
	C187.826462,156.801849 187.983047,156.748093 188.605377,156.367996 
M121.886002,87.167542 
	C115.855858,89.710869 114.170929,95.258972 112.303406,100.696220 
	C115.495201,97.794876 118.366974,94.645363 121.342239,91.596863 
	C122.547585,90.361839 123.873619,89.321259 121.886002,87.167542 
z"/>
<path fill="#000000" opacity="1.000000" stroke="none" 
	d="
M191.554581,211.196075 
	C190.847855,211.981567 190.452698,212.560593 189.911697,212.920212 
	C187.624207,214.440735 185.436615,216.993790 182.365707,214.943878 
	C179.586502,213.088730 180.698380,210.301285 181.621506,207.755890 
	C177.449570,206.769943 173.880630,206.841507 170.506454,209.472519 
	C168.266388,211.219238 165.452499,212.005341 162.582657,212.239059 
	C160.329514,212.422577 158.611526,211.484070 158.014877,209.237671 
	C157.399536,206.920883 158.662766,205.598114 160.679276,204.537567 
	C167.988922,200.693146 175.612610,197.903702 183.908661,197.310349 
	C187.649353,197.042801 190.263641,199.576935 192.304443,201.999802 
	C194.556900,204.673950 193.348587,207.984634 191.554581,211.196075 
z"/>
<path fill="#000000" opacity="1.000000" stroke="none" 
	d="
M166.789429,183.950836 
	C166.809067,182.134415 167.450958,180.948746 168.504440,180.094559 
	C170.855194,178.188461 173.538849,175.818588 176.291763,178.895996 
	C179.090302,182.024429 176.717743,184.203583 174.046432,186.129089 
	C170.810959,188.461273 168.293762,188.698151 166.789429,183.950836 
z"/>
</svg>